<svg xmlns="http://www.w3.org/2000/svg" xmlns:xlink="http://www.w3.org/1999/xlink" version="1.1" x="0px" y="0px" viewBox="0 0 100 125" enable-background="new 0 0 100 100" xml:space="preserve"><path d="M35.918,50.153c7.043,0,12.753-6.77,12.753-15.122c0-8.35-5.71-12.914-12.753-12.914s-12.753,4.564-12.753,12.914  C23.165,43.384,28.875,50.153,35.918,50.153z M50.808,57.316H21.028C14.938,57.316,10,62.253,10,68.346v12.466  c27.214,20.674,51.836,0,51.836,0V68.346C61.836,62.253,56.897,57.316,50.808,57.316z M77.104,35.562V22.667h-4.876v12.896H59.333  v4.875h12.896v12.896h4.876V40.438H90v-4.875H77.104z"/><text x="0" y="115" fill="#000000" font-size="5px" font-weight="bold" font-family="'Helvetica Neue', Helvetica, Arial-Unicode, Arial, Sans-serif">Created by Chunk Icons</text><text x="0" y="120" fill="#000000" font-size="5px" font-weight="bold" font-family="'Helvetica Neue', Helvetica, Arial-Unicode, Arial, Sans-serif">from the Noun Project</text></svg>